#N canvas 461 219 773 327 12;
#X obj 19 119 netsend -u -b;
#X obj 19 19 loadbang;
#X text 139 118 OSC output to Max;
#X floatatom 199 19 17 0 0 0 - - - 16;
#X obj 199 59 oscformat objet scale x;
#X obj 379 59 oscformat objet scale y;
#X obj 560 59 oscformat objet scale z;
#X floatatom 560 19 17 0 0 0 - - - 16;
#X floatatom 379 19 17 0 0 0 - - - 16;
#X msg 19 59 connect 127.0.0.1 57120;
#X connect 1 0 9 0;
#X connect 3 0 4 0;
#X connect 4 0 0 0;
#X connect 5 0 0 0;
#X connect 6 0 0 0;
#X connect 7 0 6 0;
#X connect 8 0 5 0;
#X connect 9 0 0 0;
