{
	"patcher" : 	{
		"fileversion" : 1,
		"appversion" : 		{
			"major" : 8,
			"minor" : 5,
			"revision" : 6,
			"architecture" : "x64",
			"modernui" : 1
		}
,
		"classnamespace" : "box",
		"openrect" : [ 30.0, 30.0, 1000.0, 1000.0 ],
		"bglocked" : 0,
		"openinpresentation" : 1,
		"default_fontsize" : 12.0,
		"default_fontface" : 0,
		"default_fontname" : "Arial",
		"gridonopen" : 2,
		"gridsize" : [ 15.0, 15.0 ],
		"gridsnaponopen" : 2,
		"objectsnaponopen" : 0,
		"statusbarvisible" : 2,
		"toolbarvisible" : 1,
		"lefttoolbarpinned" : 0,
		"toptoolbarpinned" : 0,
		"righttoolbarpinned" : 0,
		"bottomtoolbarpinned" : 0,
		"toolbars_unpinned_last_save" : 0,
		"tallnewobj" : 0,
		"boxanimatetime" : 200,
		"enablehscroll" : 1,
		"enablevscroll" : 1,
		"devicewidth" : 0.0,
		"description" : "",
		"digest" : "",
		"tags" : "",
		"style" : "",
		"subpatcher_template" : "evan_template",
		"assistshowspatchername" : 0,
		"boxes" : [ 			{
				"box" : 				{
					"id" : "obj-112",
					"maxclass" : "message",
					"numinlets" : 2,
					"numoutlets" : 1,
					"outlettype" : [ "" ],
					"patching_rect" : [ 555.0, 120.0, 95.0, 22.0 ],
					"text" : "set #1"
				}

			}
, 			{
				"box" : 				{
					"id" : "obj-113",
					"maxclass" : "newobj",
					"numinlets" : 1,
					"numoutlets" : 1,
					"outlettype" : [ "bang" ],
					"patching_rect" : [ 555.0, 90.0, 60.0, 22.0 ],
					"text" : "loadbang"
				}

			}
, 			{
				"box" : 				{
					"id" : "obj-114",
					"maxclass" : "comment",
					"numinlets" : 1,
					"numoutlets" : 0,
					"patching_rect" : [ 555.0, 150.0, 150.0, 20.0 ],
					"presentation" : 1,
					"presentation_rect" : [ 0.0, 15.0, 105.0, 20.0 ],
					"text" : "#1"
				}

			}
, 			{
				"box" : 				{
					"fontface" : 1,
					"id" : "obj-115",
					"maxclass" : "comment",
					"numinlets" : 1,
					"numoutlets" : 0,
					"patching_rect" : [ 555.0, 15.0, 135.0, 20.0 ],
					"presentation" : 1,
					"presentation_rect" : [ 0.0, 0.0, 105.0, 20.0 ],
					"text" : "mira.motion"
				}

			}
, 			{
				"box" : 				{
					"angle" : 270.0,
					"bgcolor" : [ 0.662745098039216, 0.811764705882353, 0.803921568627451, 1.0 ],
					"id" : "obj-124",
					"maxclass" : "panel",
					"mode" : 0,
					"numinlets" : 1,
					"numoutlets" : 0,
					"patching_rect" : [ 555.0, 15.0, 135.0, 15.0 ],
					"presentation" : 1,
					"presentation_rect" : [ 0.0, 0.0, 405.0, 33.0 ],
					"proportion" : 0.5
				}

			}
, 			{
				"box" : 				{
					"id" : "obj-84",
					"maxclass" : "comment",
					"numinlets" : 1,
					"numoutlets" : 0,
					"patching_rect" : [ 90.0, 1455.0, 18.0, 20.0 ],
					"presentation" : 1,
					"presentation_rect" : [ 210.0, 375.0, 18.0, 20.0 ],
					"text" : "z"
				}

			}
, 			{
				"box" : 				{
					"id" : "obj-85",
					"maxclass" : "comment",
					"numinlets" : 1,
					"numoutlets" : 0,
					"patching_rect" : [ 90.0, 1395.0, 18.0, 20.0 ],
					"presentation" : 1,
					"presentation_rect" : [ 210.0, 315.0, 18.0, 20.0 ],
					"text" : "x"
				}

			}
, 			{
				"box" : 				{
					"id" : "obj-86",
					"maxclass" : "comment",
					"numinlets" : 1,
					"numoutlets" : 0,
					"patching_rect" : [ 90.0, 1425.0, 18.0, 20.0 ],
					"presentation" : 1,
					"presentation_rect" : [ 210.0, 345.0, 18.0, 20.0 ],
					"text" : "y"
				}

			}
, 			{
				"box" : 				{
					"fontface" : 1,
					"id" : "obj-87",
					"maxclass" : "comment",
					"numinlets" : 1,
					"numoutlets" : 0,
					"patching_rect" : [ 30.0, 1365.0, 80.0, 20.0 ],
					"presentation" : 1,
					"presentation_rect" : [ 300.0, 315.0, 90.0, 20.0 ],
					"text" : "rawmagnet",
					"textjustification" : 2
				}

			}
, 			{
				"box" : 				{
					"id" : "obj-80",
					"maxclass" : "comment",
					"numinlets" : 1,
					"numoutlets" : 0,
					"patching_rect" : [ 90.0, 1275.0, 18.0, 20.0 ],
					"presentation" : 1,
					"presentation_rect" : [ 210.0, 285.0, 18.0, 20.0 ],
					"text" : "z"
				}

			}
, 			{
				"box" : 				{
					"id" : "obj-81",
					"maxclass" : "comment",
					"numinlets" : 1,
					"numoutlets" : 0,
					"patching_rect" : [ 90.0, 1215.0, 18.0, 20.0 ],
					"presentation" : 1,
					"presentation_rect" : [ 210.0, 225.0, 18.0, 20.0 ],
					"text" : "x"
				}

			}
, 			{
				"box" : 				{
					"id" : "obj-82",
					"maxclass" : "comment",
					"numinlets" : 1,
					"numoutlets" : 0,
					"patching_rect" : [ 90.0, 1245.0, 18.0, 20.0 ],
					"presentation" : 1,
					"presentation_rect" : [ 210.0, 255.0, 18.0, 20.0 ],
					"text" : "y"
				}

			}
, 			{
				"box" : 				{
					"fontface" : 1,
					"id" : "obj-83",
					"maxclass" : "comment",
					"numinlets" : 1,
					"numoutlets" : 0,
					"patching_rect" : [ 30.0, 1185.0, 81.0, 20.0 ],
					"presentation" : 1,
					"presentation_rect" : [ 300.0, 225.0, 90.0, 20.0 ],
					"text" : "rawgyro",
					"textjustification" : 2
				}

			}
, 			{
				"box" : 				{
					"id" : "obj-76",
					"maxclass" : "comment",
					"numinlets" : 1,
					"numoutlets" : 0,
					"patching_rect" : [ 90.0, 1095.0, 18.0, 20.0 ],
					"presentation" : 1,
					"presentation_rect" : [ 210.0, 195.0, 18.0, 20.0 ],
					"text" : "z"
				}

			}
, 			{
				"box" : 				{
					"id" : "obj-77",
					"maxclass" : "comment",
					"numinlets" : 1,
					"numoutlets" : 0,
					"patching_rect" : [ 90.0, 1035.0, 18.0, 20.0 ],
					"presentation" : 1,
					"presentation_rect" : [ 210.0, 135.0, 18.0, 20.0 ],
					"text" : "x"
				}

			}
, 			{
				"box" : 				{
					"id" : "obj-78",
					"maxclass" : "comment",
					"numinlets" : 1,
					"numoutlets" : 0,
					"patching_rect" : [ 90.0, 1065.0, 18.0, 20.0 ],
					"presentation" : 1,
					"presentation_rect" : [ 210.0, 165.0, 18.0, 20.0 ],
					"text" : "y"
				}

			}
, 			{
				"box" : 				{
					"fontface" : 1,
					"id" : "obj-79",
					"maxclass" : "comment",
					"numinlets" : 1,
					"numoutlets" : 0,
					"patching_rect" : [ 30.0, 1005.0, 80.0, 20.0 ],
					"presentation" : 1,
					"presentation_rect" : [ 300.0, 135.0, 90.0, 20.0 ],
					"text" : "rawaccel",
					"textjustification" : 2
				}

			}
, 			{
				"box" : 				{
					"id" : "obj-72",
					"maxclass" : "comment",
					"numinlets" : 1,
					"numoutlets" : 0,
					"patching_rect" : [ 90.0, 915.0, 18.0, 20.0 ],
					"presentation" : 1,
					"presentation_rect" : [ 210.0, 105.0, 18.0, 20.0 ],
					"text" : "z"
				}

			}
, 			{
				"box" : 				{
					"id" : "obj-73",
					"maxclass" : "comment",
					"numinlets" : 1,
					"numoutlets" : 0,
					"patching_rect" : [ 90.0, 855.0, 18.0, 20.0 ],
					"presentation" : 1,
					"presentation_rect" : [ 210.0, 45.0, 18.0, 20.0 ],
					"text" : "x"
				}

			}
, 			{
				"box" : 				{
					"id" : "obj-74",
					"maxclass" : "comment",
					"numinlets" : 1,
					"numoutlets" : 0,
					"patching_rect" : [ 90.0, 885.0, 18.0, 20.0 ],
					"presentation" : 1,
					"presentation_rect" : [ 210.0, 75.0, 18.0, 20.0 ],
					"text" : "y"
				}

			}
, 			{
				"box" : 				{
					"fontface" : 1,
					"id" : "obj-75",
					"maxclass" : "comment",
					"numinlets" : 1,
					"numoutlets" : 0,
					"patching_rect" : [ 30.0, 825.0, 82.0, 20.0 ],
					"presentation" : 1,
					"presentation_rect" : [ 300.0, 45.0, 90.0, 20.0 ],
					"text" : "gravity",
					"textjustification" : 2
				}

			}
, 			{
				"box" : 				{
					"id" : "obj-68",
					"maxclass" : "comment",
					"numinlets" : 1,
					"numoutlets" : 0,
					"patching_rect" : [ 90.0, 735.0, 18.0, 20.0 ],
					"presentation" : 1,
					"presentation_rect" : [ 15.0, 375.0, 18.0, 20.0 ],
					"text" : "z"
				}

			}
, 			{
				"box" : 				{
					"id" : "obj-69",
					"maxclass" : "comment",
					"numinlets" : 1,
					"numoutlets" : 0,
					"patching_rect" : [ 90.0, 675.0, 18.0, 20.0 ],
					"presentation" : 1,
					"presentation_rect" : [ 15.0, 315.0, 18.0, 20.0 ],
					"text" : "x"
				}

			}
, 			{
				"box" : 				{
					"id" : "obj-70",
					"maxclass" : "comment",
					"numinlets" : 1,
					"numoutlets" : 0,
					"patching_rect" : [ 90.0, 705.0, 18.0, 20.0 ],
					"presentation" : 1,
					"presentation_rect" : [ 15.0, 345.0, 18.0, 20.0 ],
					"text" : "y"
				}

			}
, 			{
				"box" : 				{
					"fontface" : 1,
					"id" : "obj-71",
					"maxclass" : "comment",
					"numinlets" : 1,
					"numoutlets" : 0,
					"patching_rect" : [ 30.0, 645.0, 79.0, 20.0 ],
					"presentation" : 1,
					"presentation_rect" : [ 105.0, 315.0, 90.0, 20.0 ],
					"text" : "magnet",
					"textjustification" : 2
				}

			}
, 			{
				"box" : 				{
					"id" : "obj-64",
					"maxclass" : "comment",
					"numinlets" : 1,
					"numoutlets" : 0,
					"patching_rect" : [ 90.0, 555.0, 18.0, 20.0 ],
					"presentation" : 1,
					"presentation_rect" : [ 15.0, 285.0, 18.0, 20.0 ],
					"text" : "z"
				}

			}
, 			{
				"box" : 				{
					"id" : "obj-65",
					"maxclass" : "comment",
					"numinlets" : 1,
					"numoutlets" : 0,
					"patching_rect" : [ 90.0, 495.0, 18.0, 20.0 ],
					"presentation" : 1,
					"presentation_rect" : [ 15.0, 225.0, 18.0, 20.0 ],
					"text" : "x"
				}

			}
, 			{
				"box" : 				{
					"id" : "obj-66",
					"maxclass" : "comment",
					"numinlets" : 1,
					"numoutlets" : 0,
					"patching_rect" : [ 90.0, 525.0, 18.0, 20.0 ],
					"presentation" : 1,
					"presentation_rect" : [ 15.0, 255.0, 18.0, 20.0 ],
					"text" : "y"
				}

			}
, 			{
				"box" : 				{
					"fontface" : 1,
					"id" : "obj-67",
					"maxclass" : "comment",
					"numinlets" : 1,
					"numoutlets" : 0,
					"patching_rect" : [ 30.0, 465.0, 82.0, 20.0 ],
					"presentation" : 1,
					"presentation_rect" : [ 105.0, 225.0, 90.0, 20.0 ],
					"text" : "rotationrate",
					"textjustification" : 2
				}

			}
, 			{
				"box" : 				{
					"id" : "obj-60",
					"maxclass" : "comment",
					"numinlets" : 1,
					"numoutlets" : 0,
					"patching_rect" : [ 90.0, 375.0, 18.0, 20.0 ],
					"presentation" : 1,
					"presentation_rect" : [ 15.0, 195.0, 18.0, 20.0 ],
					"text" : "z"
				}

			}
, 			{
				"box" : 				{
					"id" : "obj-61",
					"maxclass" : "comment",
					"numinlets" : 1,
					"numoutlets" : 0,
					"patching_rect" : [ 90.0, 315.0, 18.0, 20.0 ],
					"presentation" : 1,
					"presentation_rect" : [ 15.0, 135.0, 18.0, 20.0 ],
					"text" : "x"
				}

			}
, 			{
				"box" : 				{
					"id" : "obj-62",
					"maxclass" : "comment",
					"numinlets" : 1,
					"numoutlets" : 0,
					"patching_rect" : [ 90.0, 345.0, 18.0, 20.0 ],
					"presentation" : 1,
					"presentation_rect" : [ 15.0, 165.0, 18.0, 20.0 ],
					"text" : "y"
				}

			}
, 			{
				"box" : 				{
					"fontface" : 1,
					"id" : "obj-63",
					"maxclass" : "comment",
					"numinlets" : 1,
					"numoutlets" : 0,
					"patching_rect" : [ 30.0, 285.0, 80.0, 20.0 ],
					"presentation" : 1,
					"presentation_rect" : [ 105.0, 135.0, 90.0, 20.0 ],
					"text" : "accel",
					"textjustification" : 2
				}

			}
, 			{
				"box" : 				{
					"id" : "obj-51",
					"maxclass" : "comment",
					"numinlets" : 1,
					"numoutlets" : 0,
					"patching_rect" : [ 60.0, 195.0, 45.0, 20.0 ],
					"presentation" : 1,
					"presentation_rect" : [ 15.0, 105.0, 45.0, 20.0 ],
					"text" : "yaw"
				}

			}
, 			{
				"box" : 				{
					"id" : "obj-50",
					"maxclass" : "comment",
					"numinlets" : 1,
					"numoutlets" : 0,
					"patching_rect" : [ 60.0, 135.0, 45.0, 20.0 ],
					"presentation" : 1,
					"presentation_rect" : [ 15.0, 45.0, 45.0, 20.0 ],
					"text" : "roll"
				}

			}
, 			{
				"box" : 				{
					"id" : "obj-49",
					"maxclass" : "comment",
					"numinlets" : 1,
					"numoutlets" : 0,
					"patching_rect" : [ 60.0, 165.0, 45.0, 20.0 ],
					"presentation" : 1,
					"presentation_rect" : [ 15.0, 75.0, 45.0, 20.0 ],
					"text" : "pitch"
				}

			}
, 			{
				"box" : 				{
					"fontface" : 1,
					"id" : "obj-47",
					"maxclass" : "comment",
					"numinlets" : 1,
					"numoutlets" : 0,
					"patching_rect" : [ 30.0, 105.0, 81.0, 20.0 ],
					"presentation" : 1,
					"presentation_rect" : [ 120.0, 45.0, 75.0, 20.0 ],
					"text" : "orientation",
					"textjustification" : 2
				}

			}
, 			{
				"box" : 				{
					"bgcolor" : [ 1.0, 1.0, 1.0, 1.0 ],
					"candicane2" : [ 0.282353, 0.560784, 0.886275, 1.0 ],
					"candicane3" : [ 0.298039, 0.380392, 0.658824, 1.0 ],
					"candycane" : 3,
					"id" : "obj-41",
					"ignoreclick" : 1,
					"maxclass" : "multislider",
					"numinlets" : 1,
					"numoutlets" : 2,
					"outlettype" : [ "", "" ],
					"parameter_enable" : 1,
					"patching_rect" : [ 105.0, 1395.0, 330.0, 75.0 ],
					"presentation" : 1,
					"presentation_rect" : [ 210.0, 315.0, 180.0, 75.0 ],
					"saved_attribute_attributes" : 					{
						"valueof" : 						{
							"parameter_invisible" : 1,
							"parameter_longname" : "multislider[8]",
							"parameter_shortname" : "multislider[1]",
							"parameter_type" : 3
						}

					}
,
					"setminmax" : [ -6.28000020980835, 6.28000020980835 ],
					"setstyle" : 3,
					"size" : 3,
					"slidercolor" : [ 0.431373, 0.752941, 0.890196, 1.0 ],
					"varname" : "multislider[8]"
				}

			}
, 			{
				"box" : 				{
					"id" : "obj-42",
					"maxclass" : "newobj",
					"numinlets" : 3,
					"numoutlets" : 1,
					"outlettype" : [ "" ],
					"patching_rect" : [ 105.0, 1365.0, 315.0, 22.0 ],
					"text" : "pack f f f"
				}

			}
, 			{
				"box" : 				{
					"color" : [ 0.125490196078431, 0.796078431372549, 0.894117647058824, 1.0 ],
					"id" : "obj-43",
					"linecount" : 2,
					"maxclass" : "newobj",
					"numinlets" : 1,
					"numoutlets" : 3,
					"outlettype" : [ "", "", "" ],
					"patching_rect" : [ 360.0, 1305.0, 105.0, 35.0 ],
					"text" : "ossia.remote rawmagnet/z"
				}

			}
, 			{
				"box" : 				{
					"color" : [ 0.125490196078431, 0.796078431372549, 0.894117647058824, 1.0 ],
					"id" : "obj-44",
					"linecount" : 2,
					"maxclass" : "newobj",
					"numinlets" : 1,
					"numoutlets" : 3,
					"outlettype" : [ "", "", "" ],
					"patching_rect" : [ 225.0, 1305.0, 105.0, 35.0 ],
					"text" : "ossia.remote rawmagnet/y"
				}

			}
, 			{
				"box" : 				{
					"color" : [ 0.125490196078431, 0.796078431372549, 0.894117647058824, 1.0 ],
					"id" : "obj-45",
					"linecount" : 2,
					"maxclass" : "newobj",
					"numinlets" : 1,
					"numoutlets" : 3,
					"outlettype" : [ "", "", "" ],
					"patching_rect" : [ 105.0, 1305.0, 105.0, 35.0 ],
					"text" : "ossia.remote rawmagnet/x"
				}

			}
, 			{
				"box" : 				{
					"bgcolor" : [ 1.0, 1.0, 1.0, 1.0 ],
					"candicane2" : [ 0.282353, 0.560784, 0.886275, 1.0 ],
					"candicane3" : [ 0.298039, 0.380392, 0.658824, 1.0 ],
					"candycane" : 3,
					"id" : "obj-33",
					"ignoreclick" : 1,
					"maxclass" : "multislider",
					"numinlets" : 1,
					"numoutlets" : 2,
					"outlettype" : [ "", "" ],
					"parameter_enable" : 1,
					"patching_rect" : [ 105.0, 1215.0, 330.0, 75.0 ],
					"presentation" : 1,
					"presentation_rect" : [ 210.0, 225.0, 180.0, 75.0 ],
					"saved_attribute_attributes" : 					{
						"valueof" : 						{
							"parameter_invisible" : 1,
							"parameter_longname" : "multislider[7]",
							"parameter_shortname" : "multislider[1]",
							"parameter_type" : 3
						}

					}
,
					"setminmax" : [ -6.28000020980835, 6.28000020980835 ],
					"setstyle" : 3,
					"size" : 3,
					"slidercolor" : [ 0.431373, 0.752941, 0.890196, 1.0 ],
					"varname" : "multislider[7]"
				}

			}
, 			{
				"box" : 				{
					"id" : "obj-37",
					"maxclass" : "newobj",
					"numinlets" : 3,
					"numoutlets" : 1,
					"outlettype" : [ "" ],
					"patching_rect" : [ 105.0, 1185.0, 315.0, 22.0 ],
					"text" : "pack f f f"
				}

			}
, 			{
				"box" : 				{
					"color" : [ 0.125490196078431, 0.796078431372549, 0.894117647058824, 1.0 ],
					"id" : "obj-38",
					"linecount" : 2,
					"maxclass" : "newobj",
					"numinlets" : 1,
					"numoutlets" : 3,
					"outlettype" : [ "", "", "" ],
					"patching_rect" : [ 360.0, 1125.0, 90.0, 35.0 ],
					"text" : "ossia.remote rawgyro/z"
				}

			}
, 			{
				"box" : 				{
					"color" : [ 0.125490196078431, 0.796078431372549, 0.894117647058824, 1.0 ],
					"id" : "obj-39",
					"linecount" : 2,
					"maxclass" : "newobj",
					"numinlets" : 1,
					"numoutlets" : 3,
					"outlettype" : [ "", "", "" ],
					"patching_rect" : [ 225.0, 1125.0, 90.0, 35.0 ],
					"text" : "ossia.remote rawgyro/y"
				}

			}
, 			{
				"box" : 				{
					"color" : [ 0.125490196078431, 0.796078431372549, 0.894117647058824, 1.0 ],
					"id" : "obj-40",
					"linecount" : 2,
					"maxclass" : "newobj",
					"numinlets" : 1,
					"numoutlets" : 3,
					"outlettype" : [ "", "", "" ],
					"patching_rect" : [ 105.0, 1125.0, 90.0, 35.0 ],
					"text" : "ossia.remote rawgyro/x"
				}

			}
, 			{
				"box" : 				{
					"bgcolor" : [ 1.0, 1.0, 1.0, 1.0 ],
					"candicane2" : [ 0.282353, 0.560784, 0.886275, 1.0 ],
					"candicane3" : [ 0.298039, 0.380392, 0.658824, 1.0 ],
					"candycane" : 3,
					"id" : "obj-28",
					"ignoreclick" : 1,
					"maxclass" : "multislider",
					"numinlets" : 1,
					"numoutlets" : 2,
					"outlettype" : [ "", "" ],
					"parameter_enable" : 1,
					"patching_rect" : [ 105.0, 1035.0, 330.0, 75.0 ],
					"presentation" : 1,
					"presentation_rect" : [ 210.0, 135.0, 180.0, 75.0 ],
					"saved_attribute_attributes" : 					{
						"valueof" : 						{
							"parameter_invisible" : 1,
							"parameter_longname" : "multislider[6]",
							"parameter_shortname" : "multislider[1]",
							"parameter_type" : 3
						}

					}
,
					"setminmax" : [ -6.28000020980835, 6.28000020980835 ],
					"setstyle" : 3,
					"size" : 3,
					"slidercolor" : [ 0.431373, 0.752941, 0.890196, 1.0 ],
					"varname" : "multislider[6]"
				}

			}
, 			{
				"box" : 				{
					"id" : "obj-29",
					"maxclass" : "newobj",
					"numinlets" : 3,
					"numoutlets" : 1,
					"outlettype" : [ "" ],
					"patching_rect" : [ 105.0, 1005.0, 315.0, 22.0 ],
					"text" : "pack f f f"
				}

			}
, 			{
				"box" : 				{
					"color" : [ 0.125490196078431, 0.796078431372549, 0.894117647058824, 1.0 ],
					"id" : "obj-30",
					"linecount" : 2,
					"maxclass" : "newobj",
					"numinlets" : 1,
					"numoutlets" : 3,
					"outlettype" : [ "", "", "" ],
					"patching_rect" : [ 360.0, 945.0, 90.0, 35.0 ],
					"text" : "ossia.remote rawaccel/z"
				}

			}
, 			{
				"box" : 				{
					"color" : [ 0.125490196078431, 0.796078431372549, 0.894117647058824, 1.0 ],
					"id" : "obj-31",
					"linecount" : 2,
					"maxclass" : "newobj",
					"numinlets" : 1,
					"numoutlets" : 3,
					"outlettype" : [ "", "", "" ],
					"patching_rect" : [ 225.0, 945.0, 90.0, 35.0 ],
					"text" : "ossia.remote rawaccel/y"
				}

			}
, 			{
				"box" : 				{
					"color" : [ 0.125490196078431, 0.796078431372549, 0.894117647058824, 1.0 ],
					"id" : "obj-32",
					"linecount" : 2,
					"maxclass" : "newobj",
					"numinlets" : 1,
					"numoutlets" : 3,
					"outlettype" : [ "", "", "" ],
					"patching_rect" : [ 105.0, 945.0, 90.0, 35.0 ],
					"text" : "ossia.remote rawaccel/x"
				}

			}
, 			{
				"box" : 				{
					"bgcolor" : [ 1.0, 1.0, 1.0, 1.0 ],
					"candicane2" : [ 0.282353, 0.560784, 0.886275, 1.0 ],
					"candicane3" : [ 0.298039, 0.380392, 0.658824, 1.0 ],
					"candycane" : 3,
					"id" : "obj-23",
					"ignoreclick" : 1,
					"maxclass" : "multislider",
					"numinlets" : 1,
					"numoutlets" : 2,
					"outlettype" : [ "", "" ],
					"parameter_enable" : 1,
					"patching_rect" : [ 105.0, 855.0, 330.0, 75.0 ],
					"presentation" : 1,
					"presentation_rect" : [ 210.0, 45.0, 180.0, 75.0 ],
					"saved_attribute_attributes" : 					{
						"valueof" : 						{
							"parameter_invisible" : 1,
							"parameter_longname" : "multislider[5]",
							"parameter_shortname" : "multislider[1]",
							"parameter_type" : 3
						}

					}
,
					"setminmax" : [ -6.28000020980835, 6.28000020980835 ],
					"setstyle" : 3,
					"size" : 3,
					"slidercolor" : [ 0.431373, 0.752941, 0.890196, 1.0 ],
					"varname" : "multislider[5]"
				}

			}
, 			{
				"box" : 				{
					"id" : "obj-24",
					"maxclass" : "newobj",
					"numinlets" : 3,
					"numoutlets" : 1,
					"outlettype" : [ "" ],
					"patching_rect" : [ 105.0, 825.0, 315.0, 22.0 ],
					"text" : "pack f f f"
				}

			}
, 			{
				"box" : 				{
					"color" : [ 0.125490196078431, 0.796078431372549, 0.894117647058824, 1.0 ],
					"id" : "obj-25",
					"linecount" : 2,
					"maxclass" : "newobj",
					"numinlets" : 1,
					"numoutlets" : 3,
					"outlettype" : [ "", "", "" ],
					"patching_rect" : [ 360.0, 765.0, 90.0, 35.0 ],
					"text" : "ossia.remote gravity/z"
				}

			}
, 			{
				"box" : 				{
					"color" : [ 0.125490196078431, 0.796078431372549, 0.894117647058824, 1.0 ],
					"id" : "obj-26",
					"linecount" : 2,
					"maxclass" : "newobj",
					"numinlets" : 1,
					"numoutlets" : 3,
					"outlettype" : [ "", "", "" ],
					"patching_rect" : [ 225.0, 765.0, 90.0, 35.0 ],
					"text" : "ossia.remote gravity/y"
				}

			}
, 			{
				"box" : 				{
					"color" : [ 0.125490196078431, 0.796078431372549, 0.894117647058824, 1.0 ],
					"id" : "obj-27",
					"linecount" : 2,
					"maxclass" : "newobj",
					"numinlets" : 1,
					"numoutlets" : 3,
					"outlettype" : [ "", "", "" ],
					"patching_rect" : [ 105.0, 765.0, 90.0, 35.0 ],
					"text" : "ossia.remote gravity/x"
				}

			}
, 			{
				"box" : 				{
					"bgcolor" : [ 1.0, 1.0, 1.0, 1.0 ],
					"candicane2" : [ 0.282353, 0.560784, 0.886275, 1.0 ],
					"candicane3" : [ 0.298039, 0.380392, 0.658824, 1.0 ],
					"candycane" : 3,
					"id" : "obj-18",
					"ignoreclick" : 1,
					"maxclass" : "multislider",
					"numinlets" : 1,
					"numoutlets" : 2,
					"outlettype" : [ "", "" ],
					"parameter_enable" : 1,
					"patching_rect" : [ 105.0, 675.0, 330.0, 75.0 ],
					"presentation" : 1,
					"presentation_rect" : [ 15.0, 315.0, 180.0, 75.0 ],
					"saved_attribute_attributes" : 					{
						"valueof" : 						{
							"parameter_invisible" : 1,
							"parameter_longname" : "multislider[11]",
							"parameter_shortname" : "multislider[1]",
							"parameter_type" : 3
						}

					}
,
					"setminmax" : [ -6.28000020980835, 6.28000020980835 ],
					"setstyle" : 3,
					"size" : 3,
					"slidercolor" : [ 0.431373, 0.752941, 0.890196, 1.0 ],
					"varname" : "multislider[4]"
				}

			}
, 			{
				"box" : 				{
					"id" : "obj-19",
					"maxclass" : "newobj",
					"numinlets" : 3,
					"numoutlets" : 1,
					"outlettype" : [ "" ],
					"patching_rect" : [ 105.0, 645.0, 315.0, 22.0 ],
					"text" : "pack f f f"
				}

			}
, 			{
				"box" : 				{
					"color" : [ 0.125490196078431, 0.796078431372549, 0.894117647058824, 1.0 ],
					"id" : "obj-20",
					"linecount" : 2,
					"maxclass" : "newobj",
					"numinlets" : 1,
					"numoutlets" : 3,
					"outlettype" : [ "", "", "" ],
					"patching_rect" : [ 360.0, 585.0, 90.0, 35.0 ],
					"text" : "ossia.remote magnet/z"
				}

			}
, 			{
				"box" : 				{
					"color" : [ 0.125490196078431, 0.796078431372549, 0.894117647058824, 1.0 ],
					"id" : "obj-21",
					"linecount" : 2,
					"maxclass" : "newobj",
					"numinlets" : 1,
					"numoutlets" : 3,
					"outlettype" : [ "", "", "" ],
					"patching_rect" : [ 225.0, 585.0, 90.0, 35.0 ],
					"text" : "ossia.remote magnet/y"
				}

			}
, 			{
				"box" : 				{
					"color" : [ 0.125490196078431, 0.796078431372549, 0.894117647058824, 1.0 ],
					"id" : "obj-22",
					"linecount" : 2,
					"maxclass" : "newobj",
					"numinlets" : 1,
					"numoutlets" : 3,
					"outlettype" : [ "", "", "" ],
					"patching_rect" : [ 105.0, 585.0, 90.0, 35.0 ],
					"text" : "ossia.remote magnet/x"
				}

			}
, 			{
				"box" : 				{
					"bgcolor" : [ 1.0, 1.0, 1.0, 1.0 ],
					"candicane2" : [ 0.282353, 0.560784, 0.886275, 1.0 ],
					"candicane3" : [ 0.298039, 0.380392, 0.658824, 1.0 ],
					"candycane" : 3,
					"id" : "obj-13",
					"ignoreclick" : 1,
					"maxclass" : "multislider",
					"numinlets" : 1,
					"numoutlets" : 2,
					"outlettype" : [ "", "" ],
					"parameter_enable" : 1,
					"patching_rect" : [ 105.0, 495.0, 330.0, 75.0 ],
					"presentation" : 1,
					"presentation_rect" : [ 15.0, 225.0, 180.0, 75.0 ],
					"saved_attribute_attributes" : 					{
						"valueof" : 						{
							"parameter_invisible" : 1,
							"parameter_longname" : "multislider[9]",
							"parameter_shortname" : "multislider[1]",
							"parameter_type" : 3
						}

					}
,
					"setminmax" : [ -6.28000020980835, 6.28000020980835 ],
					"setstyle" : 3,
					"size" : 3,
					"slidercolor" : [ 0.431373, 0.752941, 0.890196, 1.0 ],
					"varname" : "multislider[3]"
				}

			}
, 			{
				"box" : 				{
					"id" : "obj-14",
					"maxclass" : "newobj",
					"numinlets" : 3,
					"numoutlets" : 1,
					"outlettype" : [ "" ],
					"patching_rect" : [ 105.0, 465.0, 315.0, 22.0 ],
					"text" : "pack f f f"
				}

			}
, 			{
				"box" : 				{
					"color" : [ 0.125490196078431, 0.796078431372549, 0.894117647058824, 1.0 ],
					"id" : "obj-15",
					"linecount" : 2,
					"maxclass" : "newobj",
					"numinlets" : 1,
					"numoutlets" : 3,
					"outlettype" : [ "", "", "" ],
					"patching_rect" : [ 360.0, 405.0, 81.0, 35.0 ],
					"text" : "ossia.remote rotationrate/z"
				}

			}
, 			{
				"box" : 				{
					"color" : [ 0.125490196078431, 0.796078431372549, 0.894117647058824, 1.0 ],
					"id" : "obj-16",
					"linecount" : 2,
					"maxclass" : "newobj",
					"numinlets" : 1,
					"numoutlets" : 3,
					"outlettype" : [ "", "", "" ],
					"patching_rect" : [ 225.0, 405.0, 81.0, 35.0 ],
					"text" : "ossia.remote rotationrate/y"
				}

			}
, 			{
				"box" : 				{
					"color" : [ 0.125490196078431, 0.796078431372549, 0.894117647058824, 1.0 ],
					"id" : "obj-17",
					"linecount" : 2,
					"maxclass" : "newobj",
					"numinlets" : 1,
					"numoutlets" : 3,
					"outlettype" : [ "", "", "" ],
					"patching_rect" : [ 105.0, 405.0, 81.0, 35.0 ],
					"text" : "ossia.remote rotationrate/x"
				}

			}
, 			{
				"box" : 				{
					"bgcolor" : [ 1.0, 1.0, 1.0, 1.0 ],
					"candicane2" : [ 0.282353, 0.560784, 0.886275, 1.0 ],
					"candicane3" : [ 0.298039, 0.380392, 0.658824, 1.0 ],
					"candycane" : 3,
					"id" : "obj-8",
					"ignoreclick" : 1,
					"maxclass" : "multislider",
					"numinlets" : 1,
					"numoutlets" : 2,
					"outlettype" : [ "", "" ],
					"parameter_enable" : 1,
					"patching_rect" : [ 105.0, 315.0, 330.0, 75.0 ],
					"presentation" : 1,
					"presentation_rect" : [ 15.0, 135.0, 180.0, 75.0 ],
					"saved_attribute_attributes" : 					{
						"valueof" : 						{
							"parameter_invisible" : 1,
							"parameter_longname" : "multislider[10]",
							"parameter_shortname" : "multislider[1]",
							"parameter_type" : 3
						}

					}
,
					"setminmax" : [ -6.28000020980835, 6.28000020980835 ],
					"setstyle" : 3,
					"size" : 3,
					"slidercolor" : [ 0.431373, 0.752941, 0.890196, 1.0 ],
					"varname" : "multislider[2]"
				}

			}
, 			{
				"box" : 				{
					"id" : "obj-9",
					"maxclass" : "newobj",
					"numinlets" : 3,
					"numoutlets" : 1,
					"outlettype" : [ "" ],
					"patching_rect" : [ 105.0, 285.0, 315.0, 22.0 ],
					"text" : "pack f f f"
				}

			}
, 			{
				"box" : 				{
					"color" : [ 0.125490196078431, 0.796078431372549, 0.894117647058824, 1.0 ],
					"id" : "obj-10",
					"linecount" : 2,
					"maxclass" : "newobj",
					"numinlets" : 1,
					"numoutlets" : 3,
					"outlettype" : [ "", "", "" ],
					"patching_rect" : [ 360.0, 225.0, 90.0, 35.0 ],
					"text" : "ossia.remote accel/z"
				}

			}
, 			{
				"box" : 				{
					"color" : [ 0.125490196078431, 0.796078431372549, 0.894117647058824, 1.0 ],
					"id" : "obj-11",
					"linecount" : 2,
					"maxclass" : "newobj",
					"numinlets" : 1,
					"numoutlets" : 3,
					"outlettype" : [ "", "", "" ],
					"patching_rect" : [ 225.0, 225.0, 90.0, 35.0 ],
					"text" : "ossia.remote accel/y"
				}

			}
, 			{
				"box" : 				{
					"color" : [ 0.125490196078431, 0.796078431372549, 0.894117647058824, 1.0 ],
					"id" : "obj-12",
					"linecount" : 2,
					"maxclass" : "newobj",
					"numinlets" : 1,
					"numoutlets" : 3,
					"outlettype" : [ "", "", "" ],
					"patching_rect" : [ 105.0, 225.0, 90.0, 35.0 ],
					"text" : "ossia.remote accel/x"
				}

			}
, 			{
				"box" : 				{
					"bgcolor" : [ 1.0, 1.0, 1.0, 1.0 ],
					"candicane2" : [ 0.282353, 0.560784, 0.886275, 1.0 ],
					"candicane3" : [ 0.298039, 0.380392, 0.658824, 1.0 ],
					"candycane" : 3,
					"id" : "obj-4",
					"ignoreclick" : 1,
					"maxclass" : "multislider",
					"numinlets" : 1,
					"numoutlets" : 2,
					"outlettype" : [ "", "" ],
					"parameter_enable" : 1,
					"patching_rect" : [ 105.0, 135.0, 330.0, 75.0 ],
					"presentation" : 1,
					"presentation_rect" : [ 15.0, 45.0, 180.0, 75.0 ],
					"saved_attribute_attributes" : 					{
						"valueof" : 						{
							"parameter_invisible" : 1,
							"parameter_longname" : "multislider[12]",
							"parameter_shortname" : "multislider[1]",
							"parameter_type" : 3
						}

					}
,
					"setminmax" : [ -6.28000020980835, 6.28000020980835 ],
					"setstyle" : 3,
					"size" : 3,
					"slidercolor" : [ 0.431373, 0.752941, 0.890196, 1.0 ],
					"varname" : "multislider[1]"
				}

			}
, 			{
				"box" : 				{
					"id" : "obj-2",
					"maxclass" : "newobj",
					"numinlets" : 3,
					"numoutlets" : 1,
					"outlettype" : [ "" ],
					"patching_rect" : [ 105.0, 105.0, 315.0, 22.0 ],
					"text" : "pack f f f"
				}

			}
, 			{
				"box" : 				{
					"color" : [ 0.125490196078431, 0.796078431372549, 0.894117647058824, 1.0 ],
					"id" : "obj-36",
					"linecount" : 2,
					"maxclass" : "newobj",
					"numinlets" : 1,
					"numoutlets" : 3,
					"outlettype" : [ "", "", "" ],
					"patching_rect" : [ 360.0, 45.0, 111.0, 35.0 ],
					"text" : "ossia.remote orientation/yaw"
				}

			}
, 			{
				"box" : 				{
					"color" : [ 0.125490196078431, 0.796078431372549, 0.894117647058824, 1.0 ],
					"id" : "obj-35",
					"linecount" : 2,
					"maxclass" : "newobj",
					"numinlets" : 1,
					"numoutlets" : 3,
					"outlettype" : [ "", "", "" ],
					"patching_rect" : [ 225.0, 45.0, 115.0, 35.0 ],
					"text" : "ossia.remote orientation/pitch"
				}

			}
, 			{
				"box" : 				{
					"color" : [ 0.125490196078431, 0.796078431372549, 0.894117647058824, 1.0 ],
					"id" : "obj-34",
					"linecount" : 2,
					"maxclass" : "newobj",
					"numinlets" : 1,
					"numoutlets" : 3,
					"outlettype" : [ "", "", "" ],
					"patching_rect" : [ 105.0, 45.0, 105.0, 35.0 ],
					"text" : "ossia.remote orientation/roll"
				}

			}
, 			{
				"box" : 				{
					"id" : "obj-1",
					"maxclass" : "newobj",
					"numinlets" : 1,
					"numoutlets" : 1,
					"outlettype" : [ "" ],
					"patching_rect" : [ 105.0, 15.0, 133.0, 22.0 ],
					"text" : "ossia.view #1"
				}

			}
, 			{
				"box" : 				{
					"angle" : 270.0,
					"bgcolor" : [ 0.866666666666667, 0.866666666666667, 0.866666666666667, 1.0 ],
					"id" : "obj-129",
					"maxclass" : "panel",
					"mode" : 0,
					"numinlets" : 1,
					"numoutlets" : 0,
					"patching_rect" : [ 555.0, 30.0, 135.0, 45.0 ],
					"presentation" : 1,
					"presentation_rect" : [ 0.0, 0.0, 405.0, 405.0 ],
					"proportion" : 0.5
				}

			}
 ],
		"lines" : [ 			{
				"patchline" : 				{
					"destination" : [ "obj-9", 2 ],
					"midpoints" : [ 405.0, 270.0, 410.5, 270.0 ],
					"source" : [ "obj-10", 1 ]
				}

			}
, 			{
				"patchline" : 				{
					"destination" : [ "obj-9", 1 ],
					"midpoints" : [ 270.0, 270.0, 262.5, 270.0 ],
					"source" : [ "obj-11", 1 ]
				}

			}
, 			{
				"patchline" : 				{
					"destination" : [ "obj-114", 0 ],
					"source" : [ "obj-112", 0 ]
				}

			}
, 			{
				"patchline" : 				{
					"destination" : [ "obj-112", 0 ],
					"source" : [ "obj-113", 0 ]
				}

			}
, 			{
				"patchline" : 				{
					"destination" : [ "obj-9", 0 ],
					"midpoints" : [ 150.0, 270.0, 114.5, 270.0 ],
					"source" : [ "obj-12", 1 ]
				}

			}
, 			{
				"patchline" : 				{
					"destination" : [ "obj-13", 0 ],
					"source" : [ "obj-14", 0 ]
				}

			}
, 			{
				"patchline" : 				{
					"destination" : [ "obj-14", 2 ],
					"midpoints" : [ 400.5, 450.0, 410.5, 450.0 ],
					"source" : [ "obj-15", 1 ]
				}

			}
, 			{
				"patchline" : 				{
					"destination" : [ "obj-14", 1 ],
					"midpoints" : [ 265.5, 450.0, 262.5, 450.0 ],
					"source" : [ "obj-16", 1 ]
				}

			}
, 			{
				"patchline" : 				{
					"destination" : [ "obj-14", 0 ],
					"midpoints" : [ 145.5, 450.0, 114.5, 450.0 ],
					"source" : [ "obj-17", 1 ]
				}

			}
, 			{
				"patchline" : 				{
					"destination" : [ "obj-18", 0 ],
					"source" : [ "obj-19", 0 ]
				}

			}
, 			{
				"patchline" : 				{
					"destination" : [ "obj-4", 0 ],
					"source" : [ "obj-2", 0 ]
				}

			}
, 			{
				"patchline" : 				{
					"destination" : [ "obj-19", 2 ],
					"midpoints" : [ 405.0, 630.0, 410.5, 630.0 ],
					"source" : [ "obj-20", 1 ]
				}

			}
, 			{
				"patchline" : 				{
					"destination" : [ "obj-19", 1 ],
					"midpoints" : [ 270.0, 630.0, 262.5, 630.0 ],
					"source" : [ "obj-21", 1 ]
				}

			}
, 			{
				"patchline" : 				{
					"destination" : [ "obj-19", 0 ],
					"midpoints" : [ 150.0, 630.0, 114.5, 630.0 ],
					"source" : [ "obj-22", 1 ]
				}

			}
, 			{
				"patchline" : 				{
					"destination" : [ "obj-23", 0 ],
					"source" : [ "obj-24", 0 ]
				}

			}
, 			{
				"patchline" : 				{
					"destination" : [ "obj-24", 2 ],
					"midpoints" : [ 405.0, 810.0, 410.5, 810.0 ],
					"source" : [ "obj-25", 1 ]
				}

			}
, 			{
				"patchline" : 				{
					"destination" : [ "obj-24", 1 ],
					"midpoints" : [ 270.0, 810.0, 262.5, 810.0 ],
					"source" : [ "obj-26", 1 ]
				}

			}
, 			{
				"patchline" : 				{
					"destination" : [ "obj-24", 0 ],
					"midpoints" : [ 150.0, 810.0, 114.5, 810.0 ],
					"source" : [ "obj-27", 1 ]
				}

			}
, 			{
				"patchline" : 				{
					"destination" : [ "obj-28", 0 ],
					"source" : [ "obj-29", 0 ]
				}

			}
, 			{
				"patchline" : 				{
					"destination" : [ "obj-29", 2 ],
					"midpoints" : [ 405.0, 990.0, 410.5, 990.0 ],
					"source" : [ "obj-30", 1 ]
				}

			}
, 			{
				"patchline" : 				{
					"destination" : [ "obj-29", 1 ],
					"midpoints" : [ 270.0, 990.0, 262.5, 990.0 ],
					"source" : [ "obj-31", 1 ]
				}

			}
, 			{
				"patchline" : 				{
					"destination" : [ "obj-29", 0 ],
					"midpoints" : [ 150.0, 990.0, 114.5, 990.0 ],
					"source" : [ "obj-32", 1 ]
				}

			}
, 			{
				"patchline" : 				{
					"destination" : [ "obj-2", 0 ],
					"midpoints" : [ 157.5, 90.0, 114.5, 90.0 ],
					"source" : [ "obj-34", 1 ]
				}

			}
, 			{
				"patchline" : 				{
					"destination" : [ "obj-2", 1 ],
					"midpoints" : [ 282.5, 90.0, 262.5, 90.0 ],
					"source" : [ "obj-35", 1 ]
				}

			}
, 			{
				"patchline" : 				{
					"destination" : [ "obj-2", 2 ],
					"midpoints" : [ 415.5, 90.0, 410.5, 90.0 ],
					"source" : [ "obj-36", 1 ]
				}

			}
, 			{
				"patchline" : 				{
					"destination" : [ "obj-33", 0 ],
					"source" : [ "obj-37", 0 ]
				}

			}
, 			{
				"patchline" : 				{
					"destination" : [ "obj-37", 2 ],
					"midpoints" : [ 405.0, 1170.0, 410.5, 1170.0 ],
					"source" : [ "obj-38", 1 ]
				}

			}
, 			{
				"patchline" : 				{
					"destination" : [ "obj-37", 1 ],
					"midpoints" : [ 270.0, 1170.0, 262.5, 1170.0 ],
					"source" : [ "obj-39", 1 ]
				}

			}
, 			{
				"patchline" : 				{
					"destination" : [ "obj-37", 0 ],
					"midpoints" : [ 150.0, 1170.0, 114.5, 1170.0 ],
					"source" : [ "obj-40", 1 ]
				}

			}
, 			{
				"patchline" : 				{
					"destination" : [ "obj-41", 0 ],
					"source" : [ "obj-42", 0 ]
				}

			}
, 			{
				"patchline" : 				{
					"destination" : [ "obj-42", 2 ],
					"midpoints" : [ 412.5, 1350.0, 410.5, 1350.0 ],
					"source" : [ "obj-43", 1 ]
				}

			}
, 			{
				"patchline" : 				{
					"destination" : [ "obj-42", 1 ],
					"midpoints" : [ 277.5, 1350.0, 262.5, 1350.0 ],
					"source" : [ "obj-44", 1 ]
				}

			}
, 			{
				"patchline" : 				{
					"destination" : [ "obj-42", 0 ],
					"midpoints" : [ 157.5, 1350.0, 114.5, 1350.0 ],
					"source" : [ "obj-45", 1 ]
				}

			}
, 			{
				"patchline" : 				{
					"destination" : [ "obj-8", 0 ],
					"source" : [ "obj-9", 0 ]
				}

			}
 ]
	}

}
