{
	"patcher" : 	{
		"fileversion" : 1,
		"appversion" : 		{
			"major" : 8,
			"minor" : 5,
			"revision" : 6,
			"architecture" : "x64",
			"modernui" : 1
		}
,
		"classnamespace" : "box",
		"rect" : [ 290.0, 158.0, 981.0, 518.0 ],
		"bglocked" : 0,
		"openinpresentation" : 0,
		"default_fontsize" : 12.0,
		"default_fontface" : 0,
		"default_fontname" : "Arial",
		"gridonopen" : 2,
		"gridsize" : [ 15.0, 15.0 ],
		"gridsnaponopen" : 2,
		"objectsnaponopen" : 0,
		"statusbarvisible" : 2,
		"toolbarvisible" : 1,
		"lefttoolbarpinned" : 0,
		"toptoolbarpinned" : 0,
		"righttoolbarpinned" : 0,
		"bottomtoolbarpinned" : 0,
		"toolbars_unpinned_last_save" : 0,
		"tallnewobj" : 0,
		"boxanimatetime" : 200,
		"enablehscroll" : 1,
		"enablevscroll" : 1,
		"devicewidth" : 0.0,
		"description" : "",
		"digest" : "",
		"tags" : "",
		"style" : "",
		"subpatcher_template" : "",
		"assistshowspatchername" : 0,
		"boxes" : [ 			{
				"box" : 				{
					"id" : "obj-57",
					"linecount" : 2,
					"maxclass" : "comment",
					"numinlets" : 1,
					"numoutlets" : 0,
					"patching_rect" : [ 629.0, 197.0, 225.0, 33.0 ],
					"text" : "Get sensor data from a mobile device. Requires the MiraWeb package."
				}

			}
, 			{
				"box" : 				{
					"id" : "obj-55",
					"linecount" : 2,
					"maxclass" : "comment",
					"numinlets" : 1,
					"numoutlets" : 0,
					"patching_rect" : [ 693.0, 75.0, 105.0, 33.0 ],
					"presentation" : 1,
					"presentation_linecount" : 2,
					"presentation_rect" : [ 62.983519613742828, 87.0, 153.0, 33.0 ],
					"text" : "mira.frame for ossia.mira.motion"
				}

			}
, 			{
				"box" : 				{
					"color" : [ 0.125490196078431, 0.796078431372549, 0.894117647058824, 1.0 ],
					"id" : "obj-52",
					"linecount" : 3,
					"maxclass" : "newobj",
					"numinlets" : 1,
					"numoutlets" : 2,
					"outlettype" : [ "", "" ],
					"patching_rect" : [ 285.0, 975.0, 105.0, 49.0 ],
					"text" : "ossia.parameter rawmagnet/z @type float"
				}

			}
, 			{
				"box" : 				{
					"color" : [ 0.125490196078431, 0.796078431372549, 0.894117647058824, 1.0 ],
					"id" : "obj-53",
					"linecount" : 3,
					"maxclass" : "newobj",
					"numinlets" : 1,
					"numoutlets" : 2,
					"outlettype" : [ "", "" ],
					"patching_rect" : [ 285.0, 855.0, 105.0, 49.0 ],
					"text" : "ossia.parameter rawgyro/z @type float"
				}

			}
, 			{
				"box" : 				{
					"color" : [ 0.125490196078431, 0.796078431372549, 0.894117647058824, 1.0 ],
					"id" : "obj-50",
					"linecount" : 3,
					"maxclass" : "newobj",
					"numinlets" : 1,
					"numoutlets" : 2,
					"outlettype" : [ "", "" ],
					"patching_rect" : [ 165.0, 975.0, 105.0, 49.0 ],
					"text" : "ossia.parameter rawmagnet/y @type float"
				}

			}
, 			{
				"box" : 				{
					"color" : [ 0.125490196078431, 0.796078431372549, 0.894117647058824, 1.0 ],
					"id" : "obj-51",
					"linecount" : 3,
					"maxclass" : "newobj",
					"numinlets" : 1,
					"numoutlets" : 2,
					"outlettype" : [ "", "" ],
					"patching_rect" : [ 165.0, 855.0, 105.0, 49.0 ],
					"text" : "ossia.parameter rawgyro/y @type float"
				}

			}
, 			{
				"box" : 				{
					"color" : [ 0.125490196078431, 0.796078431372549, 0.894117647058824, 1.0 ],
					"id" : "obj-48",
					"linecount" : 3,
					"maxclass" : "newobj",
					"numinlets" : 1,
					"numoutlets" : 2,
					"outlettype" : [ "", "" ],
					"patching_rect" : [ 45.0, 975.0, 105.0, 49.0 ],
					"text" : "ossia.parameter rawmagnet/x @type float"
				}

			}
, 			{
				"box" : 				{
					"color" : [ 0.125490196078431, 0.796078431372549, 0.894117647058824, 1.0 ],
					"id" : "obj-49",
					"linecount" : 3,
					"maxclass" : "newobj",
					"numinlets" : 1,
					"numoutlets" : 2,
					"outlettype" : [ "", "" ],
					"patching_rect" : [ 45.0, 855.0, 105.0, 49.0 ],
					"text" : "ossia.parameter rawgyro/x @type float"
				}

			}
, 			{
				"box" : 				{
					"color" : [ 0.125490196078431, 0.796078431372549, 0.894117647058824, 1.0 ],
					"id" : "obj-47",
					"linecount" : 3,
					"maxclass" : "newobj",
					"numinlets" : 1,
					"numoutlets" : 2,
					"outlettype" : [ "", "" ],
					"patching_rect" : [ 285.0, 735.0, 107.0, 49.0 ],
					"text" : "ossia.parameter rawaccel/z @type float"
				}

			}
, 			{
				"box" : 				{
					"color" : [ 0.125490196078431, 0.796078431372549, 0.894117647058824, 1.0 ],
					"id" : "obj-46",
					"linecount" : 3,
					"maxclass" : "newobj",
					"numinlets" : 1,
					"numoutlets" : 2,
					"outlettype" : [ "", "" ],
					"patching_rect" : [ 165.0, 735.0, 107.0, 49.0 ],
					"text" : "ossia.parameter rawaccel/y @type float"
				}

			}
, 			{
				"box" : 				{
					"color" : [ 0.125490196078431, 0.796078431372549, 0.894117647058824, 1.0 ],
					"id" : "obj-43",
					"linecount" : 3,
					"maxclass" : "newobj",
					"numinlets" : 1,
					"numoutlets" : 2,
					"outlettype" : [ "", "" ],
					"patching_rect" : [ 45.0, 735.0, 107.0, 49.0 ],
					"text" : "ossia.parameter rawaccel/x @type float"
				}

			}
, 			{
				"box" : 				{
					"color" : [ 0.125490196078431, 0.796078431372549, 0.894117647058824, 1.0 ],
					"id" : "obj-42",
					"linecount" : 3,
					"maxclass" : "newobj",
					"numinlets" : 1,
					"numoutlets" : 2,
					"outlettype" : [ "", "" ],
					"patching_rect" : [ 285.0, 630.0, 105.0, 49.0 ],
					"text" : "ossia.parameter gravity/z @type float"
				}

			}
, 			{
				"box" : 				{
					"color" : [ 0.125490196078431, 0.796078431372549, 0.894117647058824, 1.0 ],
					"id" : "obj-41",
					"linecount" : 3,
					"maxclass" : "newobj",
					"numinlets" : 1,
					"numoutlets" : 2,
					"outlettype" : [ "", "" ],
					"patching_rect" : [ 45.0, 630.0, 105.0, 49.0 ],
					"text" : "ossia.parameter gravity/x @type float"
				}

			}
, 			{
				"box" : 				{
					"color" : [ 0.125490196078431, 0.796078431372549, 0.894117647058824, 1.0 ],
					"id" : "obj-40",
					"linecount" : 3,
					"maxclass" : "newobj",
					"numinlets" : 1,
					"numoutlets" : 2,
					"outlettype" : [ "", "" ],
					"patching_rect" : [ 165.0, 630.0, 105.0, 49.0 ],
					"text" : "ossia.parameter gravity/y @type float"
				}

			}
, 			{
				"box" : 				{
					"color" : [ 0.125490196078431, 0.796078431372549, 0.894117647058824, 1.0 ],
					"id" : "obj-36",
					"linecount" : 3,
					"maxclass" : "newobj",
					"numinlets" : 1,
					"numoutlets" : 2,
					"outlettype" : [ "", "" ],
					"patching_rect" : [ 300.0, 150.0, 108.0, 49.0 ],
					"text" : "ossia.parameter orientation/yaw @type float"
				}

			}
, 			{
				"box" : 				{
					"color" : [ 0.125490196078431, 0.796078431372549, 0.894117647058824, 1.0 ],
					"id" : "obj-35",
					"linecount" : 3,
					"maxclass" : "newobj",
					"numinlets" : 1,
					"numoutlets" : 2,
					"outlettype" : [ "", "" ],
					"patching_rect" : [ 165.0, 150.0, 112.0, 49.0 ],
					"text" : "ossia.parameter orientation/pitch @type float"
				}

			}
, 			{
				"box" : 				{
					"color" : [ 0.125490196078431, 0.796078431372549, 0.894117647058824, 1.0 ],
					"id" : "obj-34",
					"linecount" : 3,
					"maxclass" : "newobj",
					"numinlets" : 1,
					"numoutlets" : 2,
					"outlettype" : [ "", "" ],
					"patching_rect" : [ 45.0, 150.0, 102.0, 49.0 ],
					"text" : "ossia.parameter orientation/roll @type float"
				}

			}
, 			{
				"box" : 				{
					"color" : [ 0.125490196078431, 0.796078431372549, 0.894117647058824, 1.0 ],
					"id" : "obj-30",
					"linecount" : 3,
					"maxclass" : "newobj",
					"numinlets" : 1,
					"numoutlets" : 2,
					"outlettype" : [ "", "" ],
					"patching_rect" : [ 284.317047000000002, 270.0, 105.0, 49.0 ],
					"text" : "ossia.parameter accel/z @type float"
				}

			}
, 			{
				"box" : 				{
					"color" : [ 0.125490196078431, 0.796078431372549, 0.894117647058824, 1.0 ],
					"id" : "obj-31",
					"linecount" : 3,
					"maxclass" : "newobj",
					"numinlets" : 1,
					"numoutlets" : 2,
					"outlettype" : [ "", "" ],
					"patching_rect" : [ 164.317047000000002, 270.0, 105.0, 49.0 ],
					"text" : "ossia.parameter accel/y @type float"
				}

			}
, 			{
				"box" : 				{
					"color" : [ 0.125490196078431, 0.796078431372549, 0.894117647058824, 1.0 ],
					"id" : "obj-32",
					"linecount" : 3,
					"maxclass" : "newobj",
					"numinlets" : 1,
					"numoutlets" : 2,
					"outlettype" : [ "", "" ],
					"patching_rect" : [ 44.317047000000002, 270.0, 105.0, 49.0 ],
					"text" : "ossia.parameter accel/x @type float"
				}

			}
, 			{
				"box" : 				{
					"color" : [ 0.125490196078431, 0.796078431372549, 0.894117647058824, 1.0 ],
					"id" : "obj-29",
					"linecount" : 3,
					"maxclass" : "newobj",
					"numinlets" : 1,
					"numoutlets" : 2,
					"outlettype" : [ "", "" ],
					"patching_rect" : [ 300.0, 510.0, 105.0, 49.0 ],
					"text" : "ossia.parameter magnet/z @type float"
				}

			}
, 			{
				"box" : 				{
					"color" : [ 0.125490196078431, 0.796078431372549, 0.894117647058824, 1.0 ],
					"id" : "obj-28",
					"linecount" : 3,
					"maxclass" : "newobj",
					"numinlets" : 1,
					"numoutlets" : 2,
					"outlettype" : [ "", "" ],
					"patching_rect" : [ 165.0, 510.0, 105.0, 49.0 ],
					"text" : "ossia.parameter magnet/y @type float"
				}

			}
, 			{
				"box" : 				{
					"color" : [ 0.125490196078431, 0.796078431372549, 0.894117647058824, 1.0 ],
					"id" : "obj-27",
					"linecount" : 3,
					"maxclass" : "newobj",
					"numinlets" : 1,
					"numoutlets" : 2,
					"outlettype" : [ "", "" ],
					"patching_rect" : [ 45.0, 510.0, 105.0, 49.0 ],
					"text" : "ossia.parameter magnet/x @type float"
				}

			}
, 			{
				"box" : 				{
					"color" : [ 0.125490196078431, 0.796078431372549, 0.894117647058824, 1.0 ],
					"id" : "obj-23",
					"linecount" : 3,
					"maxclass" : "newobj",
					"numinlets" : 1,
					"numoutlets" : 2,
					"outlettype" : [ "", "" ],
					"patching_rect" : [ 285.0, 390.0, 105.0, 49.0 ],
					"text" : "ossia.parameter rotationrate/z @type float"
				}

			}
, 			{
				"box" : 				{
					"color" : [ 0.125490196078431, 0.796078431372549, 0.894117647058824, 1.0 ],
					"id" : "obj-22",
					"linecount" : 3,
					"maxclass" : "newobj",
					"numinlets" : 1,
					"numoutlets" : 2,
					"outlettype" : [ "", "" ],
					"patching_rect" : [ 165.0, 390.0, 105.0, 49.0 ],
					"text" : "ossia.parameter rotationrate/y @type float"
				}

			}
, 			{
				"box" : 				{
					"color" : [ 0.125490196078431, 0.796078431372549, 0.894117647058824, 1.0 ],
					"id" : "obj-21",
					"linecount" : 3,
					"maxclass" : "newobj",
					"numinlets" : 1,
					"numoutlets" : 2,
					"outlettype" : [ "", "" ],
					"patching_rect" : [ 45.0, 390.0, 105.0, 49.0 ],
					"text" : "ossia.parameter rotationrate/x @type float"
				}

			}
, 			{
				"box" : 				{
					"id" : "obj-20",
					"maxclass" : "newobj",
					"numinlets" : 1,
					"numoutlets" : 5,
					"outlettype" : [ "", "", "", "", "" ],
					"patching_rect" : [ 45.0, 930.0, 495.0, 22.0 ],
					"text" : "mira.mo.rawmagnet"
				}

			}
, 			{
				"box" : 				{
					"id" : "obj-19",
					"maxclass" : "newobj",
					"numinlets" : 1,
					"numoutlets" : 5,
					"outlettype" : [ "", "", "", "", "" ],
					"patching_rect" : [ 45.0, 810.0, 495.0, 22.0 ],
					"text" : "mira.mo.rawgyro"
				}

			}
, 			{
				"box" : 				{
					"id" : "obj-18",
					"maxclass" : "newobj",
					"numinlets" : 1,
					"numoutlets" : 5,
					"outlettype" : [ "", "", "", "", "" ],
					"patching_rect" : [ 45.0, 705.0, 495.0, 22.0 ],
					"text" : "mira.mo.rawaccel"
				}

			}
, 			{
				"box" : 				{
					"id" : "obj-17",
					"maxclass" : "newobj",
					"numinlets" : 1,
					"numoutlets" : 5,
					"outlettype" : [ "", "", "", "", "" ],
					"patching_rect" : [ 45.0, 585.0, 495.0, 22.0 ],
					"text" : "mira.mo.gravity"
				}

			}
, 			{
				"box" : 				{
					"color" : [ 0.125490196078431, 0.796078431372549, 0.894117647058824, 1.0 ],
					"id" : "obj-12",
					"maxclass" : "newobj",
					"numinlets" : 1,
					"numoutlets" : 1,
					"outlettype" : [ "" ],
					"patching_rect" : [ 105.0, 60.0, 142.0, 22.0 ],
					"text" : "ossia.model #1"
				}

			}
, 			{
				"box" : 				{
					"fontname" : "Arial",
					"fontsize" : 13.0,
					"id" : "obj-39",
					"maxclass" : "newobj",
					"numinlets" : 1,
					"numoutlets" : 5,
					"outlettype" : [ "", "", "", "", "" ],
					"patching_rect" : [ 45.0, 105.0, 525.0, 23.0 ],
					"text" : "mira.mo.orientation"
				}

			}
, 			{
				"box" : 				{
					"fontname" : "Arial",
					"fontsize" : 13.0,
					"id" : "obj-38",
					"maxclass" : "newobj",
					"numinlets" : 1,
					"numoutlets" : 6,
					"outlettype" : [ "", "", "", "", "", "" ],
					"patching_rect" : [ 45.0, 465.0, 675.0, 23.0 ],
					"text" : "mira.mo.compass"
				}

			}
, 			{
				"box" : 				{
					"fontname" : "Arial",
					"fontsize" : 13.0,
					"id" : "obj-37",
					"maxclass" : "newobj",
					"numinlets" : 1,
					"numoutlets" : 5,
					"outlettype" : [ "", "", "", "", "" ],
					"patching_rect" : [ 45.0, 225.0, 495.0, 23.0 ],
					"text" : "mira.mo.accel"
				}

			}
, 			{
				"box" : 				{
					"fontname" : "Arial",
					"fontsize" : 13.0,
					"id" : "obj-33",
					"maxclass" : "newobj",
					"numinlets" : 1,
					"numoutlets" : 5,
					"outlettype" : [ "", "", "", "", "" ],
					"patching_rect" : [ 45.0, 345.0, 480.0, 23.0 ],
					"text" : "mira.mo.rotationrate"
				}

			}
, 			{
				"box" : 				{
					"fontname" : "Arial",
					"fontsize" : 13.0,
					"id" : "obj-1",
					"maxclass" : "newobj",
					"numinlets" : 1,
					"numoutlets" : 1,
					"outlettype" : [ "" ],
					"patching_rect" : [ 15.0, 60.0, 76.0, 23.0 ],
					"text" : "mira.motion"
				}

			}
, 			{
				"box" : 				{
					"background" : 1,
					"id" : "obj-3",
					"ignoreclick" : 1,
					"maxclass" : "mira.frame",
					"numinlets" : 0,
					"numoutlets" : 0,
					"patching_rect" : [ 633.0, 15.0, 232.087917923927307, 165.0 ],
					"presentation" : 1,
					"presentation_rect" : [ 15.0, 15.0, 248.967039227485657, 177.0 ],
					"tabname" : "Basic (Motion)",
					"taborder" : 6,
					"varname" : "__help_motion"
				}

			}
 ],
		"lines" : [ 			{
				"patchline" : 				{
					"destination" : [ "obj-17", 0 ],
					"midpoints" : [ 24.5, 570.0, 54.5, 570.0 ],
					"order" : 3,
					"source" : [ "obj-1", 0 ]
				}

			}
, 			{
				"patchline" : 				{
					"destination" : [ "obj-18", 0 ],
					"midpoints" : [ 24.5, 690.0, 54.5, 690.0 ],
					"order" : 2,
					"source" : [ "obj-1", 0 ]
				}

			}
, 			{
				"patchline" : 				{
					"destination" : [ "obj-19", 0 ],
					"midpoints" : [ 24.5, 795.0, 54.5, 795.0 ],
					"order" : 1,
					"source" : [ "obj-1", 0 ]
				}

			}
, 			{
				"patchline" : 				{
					"destination" : [ "obj-20", 0 ],
					"midpoints" : [ 24.5, 915.0, 54.5, 915.0 ],
					"order" : 0,
					"source" : [ "obj-1", 0 ]
				}

			}
, 			{
				"patchline" : 				{
					"destination" : [ "obj-33", 0 ],
					"midpoints" : [ 24.5, 330.0, 54.5, 330.0 ],
					"order" : 5,
					"source" : [ "obj-1", 0 ]
				}

			}
, 			{
				"patchline" : 				{
					"destination" : [ "obj-37", 0 ],
					"midpoints" : [ 24.5, 210.0, 54.5, 210.0 ],
					"order" : 6,
					"source" : [ "obj-1", 0 ]
				}

			}
, 			{
				"patchline" : 				{
					"destination" : [ "obj-38", 0 ],
					"midpoints" : [ 24.5, 450.0, 54.5, 450.0 ],
					"order" : 4,
					"source" : [ "obj-1", 0 ]
				}

			}
, 			{
				"patchline" : 				{
					"destination" : [ "obj-39", 0 ],
					"midpoints" : [ 24.5, 93.5, 54.5, 93.5 ],
					"order" : 7,
					"source" : [ "obj-1", 0 ]
				}

			}
, 			{
				"patchline" : 				{
					"destination" : [ "obj-40", 0 ],
					"source" : [ "obj-17", 1 ]
				}

			}
, 			{
				"patchline" : 				{
					"destination" : [ "obj-41", 0 ],
					"source" : [ "obj-17", 0 ]
				}

			}
, 			{
				"patchline" : 				{
					"destination" : [ "obj-42", 0 ],
					"source" : [ "obj-17", 2 ]
				}

			}
, 			{
				"patchline" : 				{
					"destination" : [ "obj-43", 0 ],
					"source" : [ "obj-18", 0 ]
				}

			}
, 			{
				"patchline" : 				{
					"destination" : [ "obj-46", 0 ],
					"source" : [ "obj-18", 1 ]
				}

			}
, 			{
				"patchline" : 				{
					"destination" : [ "obj-47", 0 ],
					"source" : [ "obj-18", 2 ]
				}

			}
, 			{
				"patchline" : 				{
					"destination" : [ "obj-49", 0 ],
					"source" : [ "obj-19", 0 ]
				}

			}
, 			{
				"patchline" : 				{
					"destination" : [ "obj-51", 0 ],
					"source" : [ "obj-19", 1 ]
				}

			}
, 			{
				"patchline" : 				{
					"destination" : [ "obj-53", 0 ],
					"source" : [ "obj-19", 2 ]
				}

			}
, 			{
				"patchline" : 				{
					"destination" : [ "obj-48", 0 ],
					"source" : [ "obj-20", 0 ]
				}

			}
, 			{
				"patchline" : 				{
					"destination" : [ "obj-50", 0 ],
					"source" : [ "obj-20", 1 ]
				}

			}
, 			{
				"patchline" : 				{
					"destination" : [ "obj-52", 0 ],
					"source" : [ "obj-20", 2 ]
				}

			}
, 			{
				"patchline" : 				{
					"destination" : [ "obj-21", 0 ],
					"source" : [ "obj-33", 0 ]
				}

			}
, 			{
				"patchline" : 				{
					"destination" : [ "obj-22", 0 ],
					"source" : [ "obj-33", 1 ]
				}

			}
, 			{
				"patchline" : 				{
					"destination" : [ "obj-23", 0 ],
					"source" : [ "obj-33", 2 ]
				}

			}
, 			{
				"patchline" : 				{
					"destination" : [ "obj-30", 0 ],
					"source" : [ "obj-37", 2 ]
				}

			}
, 			{
				"patchline" : 				{
					"destination" : [ "obj-31", 0 ],
					"source" : [ "obj-37", 1 ]
				}

			}
, 			{
				"patchline" : 				{
					"destination" : [ "obj-32", 0 ],
					"source" : [ "obj-37", 0 ]
				}

			}
, 			{
				"patchline" : 				{
					"destination" : [ "obj-27", 0 ],
					"source" : [ "obj-38", 0 ]
				}

			}
, 			{
				"patchline" : 				{
					"destination" : [ "obj-28", 0 ],
					"source" : [ "obj-38", 1 ]
				}

			}
, 			{
				"patchline" : 				{
					"destination" : [ "obj-29", 0 ],
					"source" : [ "obj-38", 2 ]
				}

			}
, 			{
				"patchline" : 				{
					"destination" : [ "obj-34", 0 ],
					"source" : [ "obj-39", 0 ]
				}

			}
, 			{
				"patchline" : 				{
					"destination" : [ "obj-35", 0 ],
					"source" : [ "obj-39", 1 ]
				}

			}
, 			{
				"patchline" : 				{
					"destination" : [ "obj-36", 0 ],
					"source" : [ "obj-39", 2 ]
				}

			}
 ]
	}

}
