#N canvas 827 239 527 327 12;
#X obj 19 99 oscparse;
#X obj 19 139 route list;
#X obj 19 219 route slider;
#X obj 19 259 route s1 s2 s3, f 46;
#X obj 22 299 vsl 17 128 0 1 0 0 empty empty empty 0 -9 0 10 #e4e4e4 #4d4d4d #373737 0 1;
#X floatatom 19 439 5 0 0 0 empty - - 12;
#X obj 122 299 vsl 17 128 0 1 0 0 empty empty empty 0 -9 0 10 #e4e4e4 #4d4d4d #373737 0 1;
#X floatatom 119 439 5 0 0 0 empty - - 12;
#X obj 222 299 vsl 17 128 0 1 0 0 empty empty empty 0 -9 0 10 #e4e4e4 #4d4d4d #373737 0 1;
#X floatatom 219 439 5 0 0 0 empty - - 12;
#X obj 19 179 route Max;
#X obj 579 439 netsend -u -b;
#X obj 399 339 loadbang;
#X floatatom 579 339 5 0 0 0 empty - - 12;
#X obj 579 379 oscformat Pd/slider/s1;
#X obj 582 199 vsl 17 128 0 1 0 0 empty empty empty 0 -9 0 10 #e4e4e4 #4d4d4d #373737 0 1;
#X floatatom 759 339 5 0 0 0 empty - - 12;
#X obj 762 199 vsl 17 128 0 1 0 0 empty empty empty 0 -9 0 10 #e4e4e4 #4d4d4d #373737 0 1;
#X floatatom 939 339 5 0 0 0 empty - - 12;
#X obj 942 199 vsl 17 128 0 1 0 0 empty empty empty 0 -9 0 10 #e4e4e4 #4d4d4d #373737 0 1;
#X obj 759 379 oscformat Pd/slider/s2;
#X obj 939 379 oscformat Pd/slider/s3;
#X obj 19 59 netreceive -u -b 8083;
#X msg 399 379 connect 127.0.0.1 8084;
#X text 179 58 OSC input from Max;
#X text 679 438 OSC output to Max;
#X text 19 18 Pure Data <-> Max via OSC;
#X connect 0 0 1 0;
#X connect 1 0 10 0;
#X connect 2 0 3 0;
#X connect 3 0 4 0;
#X connect 3 1 6 0;
#X connect 3 2 8 0;
#X connect 4 0 5 0;
#X connect 6 0 7 0;
#X connect 8 0 9 0;
#X connect 10 0 2 0;
#X connect 12 0 23 0;
#X connect 13 0 14 0;
#X connect 14 0 11 0;
#X connect 15 0 13 0;
#X connect 16 0 20 0;
#X connect 17 0 16 0;
#X connect 18 0 21 0;
#X connect 19 0 18 0;
#X connect 20 0 11 0;
#X connect 21 0 11 0;
#X connect 22 0 0 0;
#X connect 23 0 11 0;
