#N canvas 827 239 1488 1338 12;
#X obj 199 859 netsend -u -b;
#X floatatom 199 639 5 0 0 0 - - - 12;
#X floatatom 359 639 4 0 0 0 - - - 12;
#X obj 362 459 vsl 16 121 0 1 0 0 empty empty empty 0 -9 0 10 #e4e4e4 #4d4d4d #373737 0 1;
#X obj 202 439 hsl 128 17 0 1 0 0 empty empty empty -2 -8 0 10 #e4e4e4 #4d4d4d #373737 0 1;
#X msg 19 799 connect localhost 8091;
#X obj 199 199 oscparse;
#X obj 199 239 route list;
#X obj 199 279 route x y;
#X obj 359 799 oscformat y;
#X obj 199 799 oscformat x;
#X obj 19 759 loadbang;
#X floatatom 479 639 5 0 0 0 - - - 12;
#X floatatom 679 639 5 0 0 0 - - - 12;
#X obj 682 439 vsl 16 121 0 1 0 0 empty empty empty 0 -9 0 10 #e4e4e4 #4d4d4d #373737 0 1;
#X obj 482 439 hsl 128 17 0 1 0 0 empty empty empty -2 -8 0 10 #e4e4e4 #4d4d4d #373737 0 1;
#X obj 479 799 oscformat circle_width;
#X obj 672 801 oscformat circle_height;
#X floatatom 879 639 5 0 0 0 - - - 12;
#X obj 882 439 vsl 16 121 0 1 0 0 empty empty empty 0 -9 0 10 #e4e4e4 #4d4d4d #373737 0 1;
#X obj 879 799 oscformat stroke_weight;
#X floatatom 1059 639 5 0 0 0 - - - 12;
#X obj 1062 439 vsl 16 121 0 255 0 0 empty empty empty 0 -9 0 10 #e4e4e4 #4d4d4d #373737 0 1;
#X floatatom 1119 639 5 0 0 0 - - - 12;
#X obj 1122 439 vsl 16 121 0 255 0 0 empty empty empty 0 -9 0 10 #e4e4e4 #4d4d4d #373737 0 1;
#X obj 1059 799 oscformat col;
#X floatatom 1179 639 5 0 0 0 - - - 12;
#X obj 1182 439 vsl 16 121 0 255 0 0 empty empty empty 0 -9 0 10 #e4e4e4 #4d4d4d #373737 0 1;
#X text 19 18 Pure Data <-> Processing via OSC;
#X obj 359 359 list prepend set;
#X obj 359 319 expr 1 - $f1;
#X obj 359 599 expr 1 - $f1;
#X obj 199 359 list prepend set;
#X obj 199 399 route list;
#X obj 359 399 route list;
#X obj 1059 759 pack f f f, f 20;
#X obj 1119 699 t b f;
#X obj 1179 699 t b f;
#X obj 1059 339 loadbang;
#X msg 1059 379 255;
#X text 19 58 Interface pour Patterns_OSC.pde;
#X obj 199 159 netreceive -u -b 8093;
#X text 359 158 messages from Processing;
#X text 299 858 messages to Processing;
#X connect 1 0 10 0;
#X connect 2 0 9 0;
#X connect 3 0 31 0;
#X connect 4 0 1 0;
#X connect 5 0 0 0;
#X connect 6 0 7 0;
#X connect 7 0 8 0;
#X connect 8 0 32 0;
#X connect 8 1 30 0;
#X connect 9 0 0 0;
#X connect 10 0 0 0;
#X connect 11 0 5 0;
#X connect 12 0 16 0;
#X connect 13 0 17 0;
#X connect 14 0 13 0;
#X connect 15 0 12 0;
#X connect 16 0 0 0;
#X connect 17 0 0 0;
#X connect 18 0 20 0;
#X connect 19 0 18 0;
#X connect 20 0 0 0;
#X connect 21 0 35 0;
#X connect 22 0 21 0;
#X connect 23 0 36 0;
#X connect 24 0 23 0;
#X connect 25 0 0 0;
#X connect 26 0 37 0;
#X connect 27 0 26 0;
#X connect 29 0 34 0;
#X connect 30 0 29 0;
#X connect 31 0 2 0;
#X connect 32 0 33 0;
#X connect 33 0 4 0;
#X connect 34 0 3 0;
#X connect 35 0 25 0;
#X connect 36 0 35 0;
#X connect 36 1 35 1;
#X connect 37 0 35 0;
#X connect 37 1 35 2;
#X connect 38 0 39 0;
#X connect 39 0 22 0;
#X connect 39 0 24 0;
#X connect 39 0 27 0;
#X connect 41 0 6 0;
